<svg id="Calque_1" data-name="Calque 1" xmlns="http://www.w3.org/2000/svg" viewBox="0 0 155 60"><defs><style>.cls-1{fill:#a6a6a6;}.cls-2{fill:#fff;}</style></defs><path class="cls-1" d="M134.83,10H18a15.19,15.19,0,0,0-2.14.18,7.49,7.49,0,0,0-2,.63A6.63,6.63,0,0,0,12.13,12a6.37,6.37,0,0,0-1.26,1.62,6.5,6.5,0,0,0-.66,1.9,11.2,11.2,0,0,0-.19,2c0,.31,0,.62,0,.92V41.56c0,.31,0,.61,0,.92a11.2,11.2,0,0,0,.19,2,6.19,6.19,0,0,0,.66,1.91A6.5,6.5,0,0,0,12.13,48a6.63,6.63,0,0,0,1.73,1.18,7.49,7.49,0,0,0,2,.63A15.19,15.19,0,0,0,18,50H137a15.32,15.32,0,0,0,2.14-.18,7.6,7.6,0,0,0,2-.63A6.63,6.63,0,0,0,142.87,48a6.16,6.16,0,0,0,1.92-3.52,13.42,13.42,0,0,0,.2-2v-.92c0-.36,0-.73,0-1.1V19.54c0-.37,0-.73,0-1.1v-.92a13.42,13.42,0,0,0-.2-2,6.5,6.5,0,0,0-.66-1.9,6.71,6.71,0,0,0-3-2.8,7.6,7.6,0,0,0-2-.63A15.32,15.32,0,0,0,137,10h-2.14Z"/><path d="M19,49.13l-1,0a13.37,13.37,0,0,1-2-.16,6.5,6.5,0,0,1-1.77-.55,5.85,5.85,0,0,1-1.49-1A5.45,5.45,0,0,1,11.7,46a5.75,5.75,0,0,1-.58-1.66A13,13,0,0,1,11,42.46c0-.21,0-.92,0-.92V18.44s0-.69,0-.89a11.71,11.71,0,0,1,.17-1.87A5.75,5.75,0,0,1,11.7,14a5.45,5.45,0,0,1,1.09-1.4,5.88,5.88,0,0,1,1.49-1,6.39,6.39,0,0,1,1.77-.55,14.84,14.84,0,0,1,2-.16H137a14.68,14.68,0,0,1,2,.16,6.46,6.46,0,0,1,1.78.55A5.76,5.76,0,0,1,143.3,14a5.39,5.39,0,0,1,.57,1.65,13.16,13.16,0,0,1,.19,1.88v.89c0,.38,0,.74,0,1.1V40.46c0,.37,0,.72,0,1.08v.93a12.75,12.75,0,0,1-.19,1.85A5.51,5.51,0,0,1,143.3,46a5.4,5.4,0,0,1-1.09,1.39,5.71,5.71,0,0,1-1.49,1,6.46,6.46,0,0,1-1.78.55,13.35,13.35,0,0,1-2,.16l-1,0H19Z"/><g id="_Group_" data-name=" Group "><g id="_Group_2" data-name=" Group 2"><g id="_Group_3" data-name=" Group 3"><path id="_Path_" data-name=" Path " class="cls-2" d="M36.43,30.3A4.91,4.91,0,0,1,39,26.15,5.52,5.52,0,0,0,34.69,24c-1.79-.18-3.53,1-4.44,1s-2.34-1-3.85-1a5.73,5.73,0,0,0-4.78,2.73c-2.06,3.34-.52,8.27,1.46,11,1,1.33,2.14,2.81,3.65,2.75s2-.88,3.82-.88,2.29.88,3.84.85,2.59-1.33,3.54-2.67a10.63,10.63,0,0,0,1.62-3.09A4.8,4.8,0,0,1,36.43,30.3Z"/><path id="_Path_2" data-name=" Path 2" class="cls-2" d="M33.52,22.21a4.67,4.67,0,0,0,1.19-3.49,5.38,5.38,0,0,0-3.42,1.66,4.41,4.41,0,0,0-1.22,3.36A4.49,4.49,0,0,0,33.52,22.21Z"/></g></g></g><g id="_Group_4" data-name=" Group 4"><path class="cls-2" d="M48.05,24.7V19.58h-2v-.85h5v.85H49V24.7Z"/><path class="cls-2" d="M55.64,23.49a2,2,0,0,1-2.09,1.3,2.13,2.13,0,0,1-2.24-2c0-.11,0-.23,0-.34a2.11,2.11,0,0,1,1.91-2.33l.31,0a2,2,0,0,1,2.14,2.27v.31H52.3v0A1.22,1.22,0,0,0,53.46,24h.12a1.18,1.18,0,0,0,1.14-.54ZM52.3,22h2.43a1.13,1.13,0,0,0-1.07-1.16h-.12A1.2,1.2,0,0,0,52.3,22v0ZM53,19.45,54.09,18H55.2L54,19.45Z"/><path class="cls-2" d="M57,18.44h1V24.7H57Z"/><path class="cls-2" d="M63.58,23.49a2,2,0,0,1-2.08,1.3,2.12,2.12,0,0,1-2.24-2,1.3,1.3,0,0,1,0-.34,2.1,2.1,0,0,1,1.9-2.33l.31,0a2,2,0,0,1,2.15,2.27v.31h-3.4v0A1.22,1.22,0,0,0,61.4,24h.12a1.19,1.19,0,0,0,1.15-.54ZM60.24,22h2.43a1.11,1.11,0,0,0-1.07-1.16h-.11A1.2,1.2,0,0,0,60.24,22Zm.68-2.58L62,18h1.11L61.9,19.45Z"/><path class="cls-2" d="M68.06,21.67a1.07,1.07,0,0,0-1.14-.76c-.79,0-1.28.57-1.28,1.53S66.13,24,66.92,24a1.05,1.05,0,0,0,1.14-.74H69a1.87,1.87,0,0,1-2,1.54,2.16,2.16,0,0,1-2.28-2,2,2,0,0,1,0-.35,2.08,2.08,0,0,1,1.88-2.31,2.3,2.3,0,0,1,.37,0A1.87,1.87,0,0,1,69,21.67Z"/><path class="cls-2" d="M70.24,18.44h.94v2.48h.07a1.5,1.5,0,0,1,1.47-.8,1.53,1.53,0,0,1,1.66,1.4,1.22,1.22,0,0,1,0,.27V24.7h-1V22a.94.94,0,0,0-1-1.08,1.1,1.1,0,0,0-1.21,1V24.7h-.94Z"/><path class="cls-2" d="M75.56,23.43c0-.81.65-1.28,1.79-1.35l1.3-.07v-.38c0-.48-.33-.75-1-.75s-.9.18-1,.5h-.92c.1-.77.87-1.27,2-1.27s1.89.56,1.89,1.52V24.7h-.92v-.63h-.07a1.67,1.67,0,0,1-1.44.71,1.44,1.44,0,0,1-1.6-1.22S75.56,23.47,75.56,23.43ZM78.65,23v-.37l-1.17.07c-.66,0-1,.25-1,.65s.37.64.89.64a1.12,1.12,0,0,0,1.24-1v0Z"/><path class="cls-2" d="M81.08,20.2H82v.69h.08a1.31,1.31,0,0,1,1.29-.77,2.09,2.09,0,0,1,.43,0V21a3.31,3.31,0,0,0-.53-.06,1.12,1.12,0,0,0-1.23,1V24.7h-1Z"/><path class="cls-2" d="M84.66,25.15h1c.08.33.48.54,1.12.54.79,0,1.26-.35,1.26-1v-.86h-.07a1.69,1.69,0,0,1-1.49.76,2,2,0,0,1-2-2.24,2,2,0,0,1,2-2.28,1.69,1.69,0,0,1,1.51.8h.08V20.2H89v4.54c0,1-.87,1.68-2.22,1.68C85.54,26.42,84.76,25.92,84.66,25.15ZM88,22.39a1.3,1.3,0,0,0-1.31-1.47c-.81,0-1.27.58-1.27,1.47s.46,1.48,1.27,1.48S88,23.3,88,22.39Z"/><path class="cls-2" d="M94.53,23.49a2,2,0,0,1-2.08,1.3,2.12,2.12,0,0,1-2.24-2,1.94,1.94,0,0,1,0-.34,2.11,2.11,0,0,1,1.9-2.33l.31,0a2,2,0,0,1,2.15,2.27v.31h-3.4v0A1.23,1.23,0,0,0,92.35,24h.12a1.19,1.19,0,0,0,1.15-.54ZM91.19,22h2.43a1.11,1.11,0,0,0-1.07-1.16h-.11A1.2,1.2,0,0,0,91.19,22v0Z"/><path class="cls-2" d="M95.86,20.2h.91v.69h.07a1.33,1.33,0,0,1,1.3-.77,2.09,2.09,0,0,1,.43,0V21A3.31,3.31,0,0,0,98,21a1.12,1.12,0,0,0-1.23,1V24.7h-1Z"/><path class="cls-2" d="M102,22.45c0-1.42.78-2.33,2-2.33a1.64,1.64,0,0,1,1.47.79h.07V18.44h1V24.7h-.91V24h-.07a1.71,1.71,0,0,1-1.51.79C102.75,24.78,102,23.87,102,22.45Zm1,0c0,.95.48,1.53,1.29,1.53s1.29-.58,1.29-1.53-.5-1.53-1.29-1.53S103,21.5,103,22.45Z"/><path class="cls-2" d="M107.75,23.43c0-.81.65-1.28,1.79-1.35l1.3-.07v-.38c0-.48-.34-.75-1-.75s-.9.18-1,.5h-.91c.09-.77.87-1.27,2-1.27s1.88.56,1.88,1.52V24.7h-.91v-.63h-.07a1.68,1.68,0,0,1-1.45.71,1.44,1.44,0,0,1-1.59-1.22A.57.57,0,0,1,107.75,23.43Zm3.09-.39v-.37l-1.17.07c-.66,0-1,.25-1,.65s.38.64.9.64a1.12,1.12,0,0,0,1.24-1v0Z"/><path class="cls-2" d="M113.27,20.2h.91v.71h.07a1.49,1.49,0,0,1,1.44-.8,1.53,1.53,0,0,1,1.67,1.35,1.22,1.22,0,0,1,0,.33V24.7h-.95V22c0-.72-.33-1.08-1-1.08a1.08,1.08,0,0,0-1.16,1,.86.86,0,0,0,0,.16V24.7h-1Z"/><path class="cls-2" d="M120.57,20.11c1.08,0,1.79.47,1.88,1.27h-.91c-.08-.33-.43-.54-1-.54s-.93.23-.93.58.24.44.77.55l.79.18c.92.19,1.35.56,1.35,1.22,0,.85-.85,1.42-2,1.42s-1.89-.49-2-1.28h1a1,1,0,0,0,1,.56c.59,0,1-.25,1-.61s-.23-.44-.71-.55l-.84-.18c-.91-.2-1.33-.59-1.33-1.26S119.49,20.11,120.57,20.11Z"/></g><path class="cls-2" d="M47.56,28.07h2V40.49h-2Z"/><path class="cls-2" d="M51.94,32.61,53,28.07H55l-1.32,4.54Z"/><path class="cls-2" d="M62.45,37.13H57.39l-1.21,3.36H54l4.79-12.42h2.22l4.78,12.42H63.66Zm-4.53-1.55h4l-2-5.45h-.06Z"/><path class="cls-2" d="M76.17,36c0,2.81-1.61,4.62-4,4.62a3.34,3.34,0,0,1-3-1.58h0v4.48h-2v-12H69v1.51h0a3.46,3.46,0,0,1,3.08-1.6C74.55,31.34,76.17,33.15,76.17,36Zm-2,0c0-1.83-1-3-2.56-3S69,34.15,69,36s1,3,2.53,3S74.13,37.81,74.13,36Z"/><path class="cls-2" d="M86.8,36c0,2.81-1.61,4.62-4,4.62a3.31,3.31,0,0,1-3-1.58h0v4.48h-2v-12h1.92v1.51h0a3.48,3.48,0,0,1,3.08-1.6C85.18,31.34,86.8,33.15,86.8,36Zm-2,0c0-1.83-1-3-2.55-3s-2.54,1.23-2.54,3,1,3,2.54,3S84.76,37.81,84.76,36Z"/><path class="cls-2" d="M93.83,37c.14,1.23,1.42,2,3.16,2s2.88-.81,2.88-1.92-.73-1.54-2.44-1.94l-1.72-.39c-2.43-.55-3.56-1.62-3.56-3.35,0-2.14,2-3.61,4.82-3.61s4.72,1.47,4.78,3.61h-2c-.12-1.24-1.21-2-2.81-2s-2.69.75-2.69,1.86c0,.87.7,1.39,2.4,1.79l1.46.33c2.72.6,3.85,1.63,3.85,3.44,0,2.33-2,3.78-5.11,3.78-2.94,0-4.93-1.42-5-3.66Z"/><path class="cls-2" d="M106.24,29.29v2.14h1.84V32.9h-1.84v5c0,.78.37,1.14,1.18,1.14.22,0,.44,0,.65,0v1.46a6.71,6.71,0,0,1-1.1.09c-2,0-2.72-.69-2.72-2.45V32.9h-1.4V31.43h1.4V29.29Z"/><path class="cls-2" d="M109.14,36a4.59,4.59,0,1,1,9.17,0,4.59,4.59,0,1,1-9.17,0Zm7.15,0c0-2-1-3.11-2.56-3.11S111.17,34,111.17,36s1,3.11,2.56,3.11,2.56-1.15,2.56-3.11Z"/><path class="cls-2" d="M120,31.43h1.89V33h0a2.3,2.3,0,0,1,2.33-1.63,3.21,3.21,0,0,1,.68.07v1.73A3,3,0,0,0,124,33a1.94,1.94,0,0,0-2.07,1.8,1.43,1.43,0,0,0,0,.29v5.37h-2Z"/><path class="cls-2" d="M134,37.83c-.27,1.64-2,2.77-4.16,2.77a4.25,4.25,0,0,1-4.56-4.6c0-2.84,1.76-4.68,4.47-4.68a4.11,4.11,0,0,1,4.36,4.47v.63h-6.82v.12a2.4,2.4,0,0,0,2.28,2.55h.31a2.22,2.22,0,0,0,2.24-1.27Zm-6.71-2.71h4.83A2.22,2.22,0,0,0,130,32.83h-.18a2.37,2.37,0,0,0-2.46,2.27Z"/></svg>