<svg id="Calque_1" data-name="Calque 1" xmlns="http://www.w3.org/2000/svg" xmlns:xlink="http://www.w3.org/1999/xlink" viewBox="0 0 24 24"><defs><style>.cls-1{fill:#e67032;}.cls-2{fill:#dfe58a;}.cls-3{fill:url(#Dégradé_sans_nom_51);}.cls-4{fill:url(#Dégradé_sans_nom_51-2);}</style><linearGradient id="Dégradé_sans_nom_51" x1="8.25" y1="17.13" x2="15.47" y2="17.13" gradientUnits="userSpaceOnUse"><stop offset="0" stop-color="#a8bb76"/><stop offset="0.07" stop-color="#92aa6e"/><stop offset="0.18" stop-color="#739262"/><stop offset="0.25" stop-color="#62855c"/><stop offset="0.37" stop-color="#487053"/><stop offset="0.48" stop-color="#38634d"/><stop offset="0.56" stop-color="#325f4b"/><stop offset="0.59" stop-color="#2c5a49"/><stop offset="0.68" stop-color="#1b4d43"/><stop offset="0.78" stop-color="#11453f"/><stop offset="0.9" stop-color="#0e423e"/></linearGradient><linearGradient id="Dégradé_sans_nom_51-2" x1="8.26" y1="6.87" x2="15.46" y2="6.87" xlink:href="#Dégradé_sans_nom_51"/></defs><path class="cls-1" d="M8.49,7.19H5.58A4.68,4.68,0,0,1,8.33,11v.15a3.84,3.84,0,0,1-.72,2.21,4.72,4.72,0,0,1-.69.8,2.71,2.71,0,0,1-1.37.69,2.75,2.75,0,0,1-2.39-.69,4.1,4.1,0,0,1-1.42-3A4.63,4.63,0,0,1,4.5,7.19H0v5.1A4.72,4.72,0,0,0,4.72,17h.69a4.67,4.67,0,0,0,4.64-4.13v-.06c0-.15,0-.31,0-.47V7.19Z"/><path class="cls-2" d="M15.51,15.89h2.91a4.68,4.68,0,0,1-2.75-3.81v-.14a3.89,3.89,0,0,1,.72-2.22,4.65,4.65,0,0,1,.69-.79,2.71,2.71,0,0,1,1.37-.69,2.75,2.75,0,0,1,2.39.69,4.1,4.1,0,0,1,1.42,3,4.63,4.63,0,0,1-2.76,4H24V10.78a4.71,4.71,0,0,0-4.72-4.71h-.69A4.67,4.67,0,0,0,14,10.2v.05c0,.16,0,.32,0,.48v5.16Z"/><path class="cls-3" d="M15.47,15.62a3.61,3.61,0,0,0-7.22,0,3.53,3.53,0,0,0,.62,2l2.79,4.48a.22.22,0,0,0,.4,0l2.79-4.48A3.53,3.53,0,0,0,15.47,15.62Z"/><circle class="cls-2" cx="11.82" cy="15.49" r="1.04"/><path class="cls-4" d="M15.46,7a5.76,5.76,0,0,1-3.15,4.93c-.94-1.53-.34-7.31-.43-7.32-.36,0-1,6.12-.33,7.4A5.79,5.79,0,0,1,8.26,7a5.9,5.9,0,0,1,3.6-5.18A5.9,5.9,0,0,1,15.46,7Z"/></svg>