<svg width="126" height="165" viewBox="0 0 126 165" fill="none" xmlns="http://www.w3.org/2000/svg">
<path d="M64.8122 0.217773C-42.7457 70.5671 9.37244 124.94 45.9405 137.757V139.539C39.2875 150.189 33.9025 155.642 22.9415 164.952C57.5156 148.293 68.1263 134.636 64.8122 99.3082C72.8287 115.703 73.2318 125.168 67.7609 142.445C149.088 96.5181 141.79 64.6007 64.8122 0.217773Z" fill="#E0E789"/>
<path d="M46.7331 72.4111L33.9219 92.3643H48.1565C61.8751 73.5023 69.5679 75.9093 83.3368 92.3643H95.7415L83.3368 72.4111H46.7331Z" fill="#DB5D1A"/>
<path d="M57.9175 69.0563H48.3594C55.1691 54.3897 57.9501 45.6915 59.9508 28.7967H57.9175V22.44H59.9508V20.1445H69.9151V22.44H72.1521V28.7967H69.9151C71.3005 44.9839 74.2863 53.7479 81.9131 69.0563H72.1521L68.085 55.6365H62.1877L57.9175 69.0563Z" fill="#DB5D1A"/>
<path d="M64.1617 12.0376C63.8358 14.5373 63.1838 19.6639 63.1836 20.1733H66.7686L65.5465 12.0376H64.1617Z" fill="#DB5D1A"/>
<path d="M7.41833 88.5341L1.4043 91.0466C2.59131 105.68 19.183 122.619 25.0396 127.414C30.8962 132.21 45.8603 137.403 45.6216 138.39C45.3829 139.376 33.3196 154.91 22.9591 164.951C63.577 145.841 67.9389 129.61 64.7996 99.306C71.2601 115.696 72.6636 125.136 66.9514 142.901C95.4629 125.462 115.144 114.513 123.033 93.8566C130.923 73.1999 118.594 93.8566 118.594 93.8566V73.1999L115.247 68.3842H69.8204L64.7996 73.1999V93.8566H61.2133V61.5408H45.4334V67.3703H39.6953V81.3105L33.7181 83.0847V58.1191L24.1546 62.1745V74.3404H16.2647L7.41833 70.2851V88.5341Z" fill="#0C423E"/>
</svg>
