<svg width="182" height="182" viewBox="0 0 182 182" fill="none" xmlns="http://www.w3.org/2000/svg">
<circle cx="91" cy="91" r="90.5" fill="#7DAA7B" stroke="black"/>
<path d="M92.1716 9C-15.3863 79.3493 36.7318 133.723 73.2998 146.539V148.321C66.6469 158.971 65.461 161.69 54.5 171C89.0741 154.341 95.4856 143.418 92.1716 108.09C100.188 124.485 100.591 133.951 95.1203 151.228C176.447 105.3 169.15 73.3829 92.1716 9Z" fill="#E0E789"/>
<path d="M74.093 81.1935L61.2817 101.147H75.5164C89.235 82.2846 96.9278 84.6916 110.697 101.147H123.101L110.697 81.1935H74.093Z" fill="#DB5D1A"/>
<path d="M85.2773 77.8385H75.7192C82.529 63.172 85.31 54.4738 87.3106 37.579H85.2773V31.2222H87.3106V28.9268H97.275V31.2222H99.5119V37.579H97.275C98.6604 53.7662 101.646 62.5301 109.273 77.8385H99.5119L95.4448 64.4187H89.5475L85.2773 77.8385Z" fill="#DB5D1A"/>
<path d="M91.5215 20.8198C91.1956 23.3195 90.5436 28.4461 90.5435 28.9555H94.1285L92.9064 20.8198H91.5215Z" fill="#DB5D1A"/>
<path d="M34.7777 97.3163L28.7637 99.8288C29.9507 114.463 46.5423 131.401 52.399 136.197C58.2556 140.992 73.2197 146.186 72.981 147.172C72.7423 148.158 64.8605 160.959 54.5 171C95.1179 151.889 95.2982 138.393 92.159 108.088C98.6195 124.478 100.023 133.918 94.3108 151.683C100.076 148.156 105.481 145.63 110.5 142.5C130.3 130.153 144.098 119.118 150.393 102.639C158.283 81.9821 145.954 102.639 145.954 102.639V81.9821L142.607 77.1664H97.1798L92.159 81.9821V102.639H88.5726V70.323H72.7928V76.1526H67.0547V90.0927L61.0775 91.8669V66.9014L51.5139 70.9567V83.1227H43.624L34.7777 79.0673V97.3163Z" fill="#0C423E"/>
</svg>
