<svg id="Calque_1" data-name="Calque 1" xmlns="http://www.w3.org/2000/svg" xmlns:xlink="http://www.w3.org/1999/xlink" viewBox="0 0 155 60"><defs><style>.cls-1{fill:#a6a6a6;}.cls-2{fill:#e67032;}.cls-3{fill:#dfe58a;}.cls-4{fill:url(#Dégradé_sans_nom_2);}.cls-5{fill:url(#Dégradé_sans_nom_2-2);}.cls-6{font-size:17px;letter-spacing:0em;}.cls-10,.cls-6{fill:#fff;font-family:ArialMT, Arial;}.cls-7{letter-spacing:0.02em;}.cls-8{letter-spacing:-0.04em;}.cls-9{letter-spacing:0.02em;}.cls-10{font-size:10px;letter-spacing:0.03em;}</style><linearGradient id="Dégradé_sans_nom_2" x1="30.28" y1="37.96" x2="38.85" y2="37.96" gradientTransform="matrix(1, 0, 0, -1, 0, 74)" gradientUnits="userSpaceOnUse"><stop offset="0" stop-color="#a8bb76"/><stop offset="0.07" stop-color="#92aa6e"/><stop offset="0.18" stop-color="#739262"/><stop offset="0.25" stop-color="#62855c"/><stop offset="0.37" stop-color="#487053"/><stop offset="0.48" stop-color="#38634d"/><stop offset="0.56" stop-color="#325f4b"/><stop offset="0.59" stop-color="#2c5a49"/><stop offset="0.68" stop-color="#1b4d43"/><stop offset="0.78" stop-color="#11453f"/><stop offset="0.9" stop-color="#0e423e"/></linearGradient><linearGradient id="Dégradé_sans_nom_2-2" x1="30.3" y1="50.06" x2="38.84" y2="50.06" xlink:href="#Dégradé_sans_nom_2"/></defs><path class="cls-1" d="M134.83,10H18a15.19,15.19,0,0,0-2.14.18,7.49,7.49,0,0,0-2,.63A6.63,6.63,0,0,0,12.13,12a6.37,6.37,0,0,0-1.26,1.62,6.5,6.5,0,0,0-.66,1.9,11.2,11.2,0,0,0-.19,2c0,.31,0,.62,0,.92V41.56c0,.31,0,.61,0,.92a11.2,11.2,0,0,0,.19,2,6.19,6.19,0,0,0,.66,1.91A6.5,6.5,0,0,0,12.13,48a6.63,6.63,0,0,0,1.73,1.18,7.49,7.49,0,0,0,2,.63A15.19,15.19,0,0,0,18,50H137a15.32,15.32,0,0,0,2.14-.18,7.6,7.6,0,0,0,2-.63A6.63,6.63,0,0,0,142.87,48a6.16,6.16,0,0,0,1.92-3.52,13.42,13.42,0,0,0,.2-2v-.92c0-.36,0-.73,0-1.1V19.54c0-.37,0-.73,0-1.1v-.92a13.42,13.42,0,0,0-.2-2,6.5,6.5,0,0,0-.66-1.9,6.71,6.71,0,0,0-3-2.8,7.6,7.6,0,0,0-2-.63A15.32,15.32,0,0,0,137,10h-2.14Z"/><path d="M19,49.13l-1,0a13.37,13.37,0,0,1-2-.16,6.5,6.5,0,0,1-1.77-.55,5.85,5.85,0,0,1-1.49-1A5.45,5.45,0,0,1,11.7,46a5.75,5.75,0,0,1-.58-1.66A13,13,0,0,1,11,42.46c0-.21,0-.92,0-.92V18.44s0-.69,0-.89a11.71,11.71,0,0,1,.17-1.87A5.75,5.75,0,0,1,11.7,14a5.45,5.45,0,0,1,1.09-1.4,5.88,5.88,0,0,1,1.49-1,6.39,6.39,0,0,1,1.77-.55,14.84,14.84,0,0,1,2-.16H137a14.68,14.68,0,0,1,2,.16,6.46,6.46,0,0,1,1.78.55A5.76,5.76,0,0,1,143.3,14a5.39,5.39,0,0,1,.57,1.65,13.16,13.16,0,0,1,.19,1.88v.89c0,.38,0,.74,0,1.1V40.46c0,.37,0,.72,0,1.08v.93a12.75,12.75,0,0,1-.19,1.85A5.51,5.51,0,0,1,143.3,46a5.4,5.4,0,0,1-1.09,1.39,5.71,5.71,0,0,1-1.49,1,6.46,6.46,0,0,1-1.78.55,13.35,13.35,0,0,1-2,.16l-1,0H19Z"/><path class="cls-2" d="M30.57,24.27H27.12a5.54,5.54,0,0,1,3.26,4.52V29a4.62,4.62,0,0,1-.85,2.62,5.78,5.78,0,0,1-.82,1,3.17,3.17,0,0,1-1.63.82,3.24,3.24,0,0,1-2.83-.82A4.85,4.85,0,0,1,22.56,29a5.5,5.5,0,0,1,3.28-4.71H20.5v6.05a5.6,5.6,0,0,0,5.6,5.58h.82a5.54,5.54,0,0,0,5.5-4.9V24.27Z"/><path class="cls-3" d="M38.89,34.58h3.46a5.55,5.55,0,0,1-3.27-4.51V29.9a4.61,4.61,0,0,1,.86-2.63,5.22,5.22,0,0,1,.82-.94,3.22,3.22,0,0,1,1.62-.82,3.28,3.28,0,0,1,2.84.82,4.88,4.88,0,0,1,1.68,3.56,5.48,5.48,0,0,1-3.27,4.74H49V28.52a5.58,5.58,0,0,0-5.58-5.58h-.83a5.55,5.55,0,0,0-5.45,4.9v6.74Z"/><path class="cls-4" d="M38.85,34.26a4.29,4.29,0,0,0-8.57,0h0A4.21,4.21,0,0,0,31,36.64L34.33,42a.26.26,0,0,0,.34.13A.24.24,0,0,0,34.8,42l3.31-5.31A4.21,4.21,0,0,0,38.85,34.26Z"/><circle class="cls-3" cx="34.52" cy="34.11" r="1.23"/><path class="cls-5" d="M38.84,24a6.85,6.85,0,0,1-3.74,5.85c-1.12-1.82-.4-8.67-.51-8.68-.43,0-1.19,7.26-.39,8.77A6.84,6.84,0,0,1,30.3,24a7,7,0,0,1,4.27-6.14A7,7,0,0,1,38.84,24Z"/><text class="cls-6" transform="translate(57.3 40.25) rotate(0.06)">W<tspan class="cls-7" x="16.06" y="0">eb</tspan><tspan class="cls-8" x="35.62" y="0"> </tspan><tspan class="cls-9" x="39.72" y="0">App</tspan></text><text class="cls-10" transform="translate(56.96 24.71)">Accéder à la</text></svg>